<mxfile host="app.diagrams.net" modified="2023-06-13T08:03:18.665Z" agent="Mozilla/5.0 (Windows NT 10.0; Win64; x64) AppleWebKit/537.36 (KHTML, like Gecko) Chrome/113.0.0.0 Safari/537.36" version="21.3.8" etag="jIGbg_fWMUp6IDv-N2y7" type="github">
  <diagram name="Страница 1" id="8-mOzE-NY5Z0UQBYUUM3">
    <mxGraphModel>
      <root>
        <mxCell id="0" />
        <mxCell id="1" parent="0" />
      </root>
    </mxGraphModel>
  </diagram>
</mxfile>
